<svg id="svg" version="1.1" xmlns="http://www.w3.org/2000/svg" viewBox="0 0 295 319" style="display: block;"><path d="M0,0 L295,0 L295,319 L0,319 Z M146,26 L146,27 L145,27 L145,28 L144,28 L144,29 L142,29 L142,30 L141,30 L141,31 L139,31 L139,32 L138,32 L138,33 L137,33 L137,34 L136,34 L136,35 L134,35 L134,36 L133,36 L133,37 L132,37 L132,38 L129,38 L129,39 L126,39 L126,40 L125,40 L125,41 L124,41 L124,42 L123,42 L123,43 L122,43 L122,44 L121,44 L121,45 L120,45 L120,46 L118,46 L118,47 L117,47 L117,48 L115,48 L115,49 L114,49 L114,50 L113,50 L113,51 L112,51 L112,52 L110,52 L110,53 L109,53 L109,54 L107,54 L107,55 L105,55 L105,57 L103,57 L103,58 L102,58 L102,59 L100,59 L100,60 L98,60 L98,61 L97,61 L97,62 L96,62 L96,63 L95,63 L95,64 L94,64 L94,65 L92,65 L92,66 L91,66 L91,67 L90,67 L90,68 L89,68 L89,69 L88,69 L88,70 L87,70 L87,71 L85,71 L85,72 L83,72 L83,73 L82,73 L82,74 L81,74 L81,75 L78,75 L78,76 L77,76 L77,77 L76,77 L76,78 L74,78 L74,81 L100,81 L100,104 L110,104 L110,106 L112,106 L112,107 L115,107 L115,108 L116,108 L116,110 L117,110 L117,111 L118,111 L118,112 L119,112 L119,114 L120,114 L120,115 L121,115 L121,116 L123,116 L123,119 L124,119 L124,122 L126,122 L126,123 L127,123 L127,127 L128,127 L128,147 L127,147 L127,151 L126,151 L126,152 L125,152 L125,156 L124,156 L124,157 L122,157 L122,159 L121,159 L121,160 L120,160 L120,161 L118,161 L118,162 L117,162 L117,163 L116,163 L116,165 L115,165 L115,166 L114,166 L114,167 L112,167 L112,168 L111,168 L111,169 L110,169 L110,170 L109,170 L109,172 L108,172 L108,173 L107,173 L107,175 L106,175 L106,176 L105,176 L105,177 L104,177 L104,179 L103,179 L103,181 L102,181 L102,182 L101,182 L101,183 L100,183 L100,184 L99,184 L99,187 L98,187 L98,189 L97,189 L97,194 L95,194 L95,198 L94,198 L94,200 L93,200 L93,205 L92,205 L92,208 L91,208 L91,209 L90,209 L90,214 L89,214 L89,234 L90,234 L90,238 L91,238 L91,244 L92,244 L92,246 L94,246 L94,250 L95,250 L95,253 L96,253 L96,256 L97,256 L97,257 L98,257 L98,259 L99,259 L99,260 L100,260 L100,261 L101,261 L101,264 L102,264 L102,268 L104,268 L104,269 L105,269 L105,270 L106,270 L106,272 L107,272 L107,273 L108,273 L108,274 L110,274 L110,275 L111,275 L111,276 L112,276 L112,277 L113,277 L113,278 L114,278 L114,279 L115,279 L115,280 L116,280 L116,281 L117,281 L117,283 L118,283 L118,284 L120,284 L120,285 L122,285 L122,286 L124,286 L124,287 L126,287 L126,288 L127,288 L127,290 L128,290 L128,291 L132,291 L132,292 L133,292 L133,293 L137,293 L137,294 L138,294 L138,295 L142,295 L142,296 L145,296 L145,297 L150,297 L150,299 L174,299 L174,298 L182,298 L182,297 L186,297 L186,296 L189,296 L189,295 L191,295 L191,294 L194,294 L194,293 L196,293 L196,291 L198,291 L198,290 L202,290 L202,289 L203,289 L203,288 L205,288 L205,287 L207,287 L207,286 L208,286 L208,285 L209,285 L209,284 L210,284 L210,282 L212,282 L212,281 L213,281 L213,280 L215,280 L215,278 L217,278 L217,275 L219,275 L219,274 L220,274 L220,273 L221,273 L221,271 L222,271 L222,270 L223,270 L223,268 L225,268 L225,266 L226,266 L226,265 L227,265 L227,263 L228,263 L228,262 L229,262 L229,261 L230,261 L230,260 L231,260 L231,256 L232,256 L232,254 L233,254 L233,251 L234,251 L234,250 L236,250 L236,247 L237,247 L237,244 L238,244 L238,238 L239,238 L239,234 L240,234 L240,212 L239,212 L239,208 L238,208 L238,204 L237,204 L237,197 L236,197 L236,196 L235,196 L235,194 L234,194 L234,191 L233,191 L233,190 L232,190 L232,189 L231,189 L231,187 L230,187 L230,184 L229,184 L229,183 L228,183 L228,181 L227,181 L227,180 L226,180 L226,179 L225,179 L225,178 L224,178 L224,176 L223,176 L223,175 L222,175 L222,174 L221,174 L221,173 L220,173 L220,172 L219,172 L219,171 L218,171 L218,170 L217,170 L217,169 L216,169 L216,168 L215,168 L215,167 L214,167 L214,166 L213,166 L213,165 L212,165 L212,164 L211,164 L211,163 L210,163 L210,162 L209,162 L209,161 L208,161 L208,160 L207,160 L207,158 L206,158 L206,157 L205,157 L205,155 L204,155 L204,154 L203,154 L203,153 L202,153 L202,151 L201,151 L201,150 L200,150 L200,148 L198,148 L198,146 L197,146 L197,142 L196,142 L196,141 L195,141 L195,139 L194,139 L194,136 L193,136 L193,135 L192,135 L192,131 L191,131 L191,127 L190,127 L190,122 L189,122 L189,104 L195,104 L195,103 L197,103 L197,81 L221,81 L221,78 L220,78 L220,77 L219,77 L219,76 L218,76 L218,75 L214,75 L214,74 L213,74 L213,73 L212,73 L212,72 L211,72 L211,71 L210,71 L210,70 L208,70 L208,69 L207,69 L207,68 L206,68 L206,67 L205,67 L205,66 L204,66 L204,65 L201,65 L201,64 L200,64 L200,63 L199,63 L199,62 L197,62 L197,61 L196,61 L196,60 L195,60 L195,59 L194,59 L194,58 L193,58 L193,57 L191,57 L191,56 L189,56 L189,55 L188,55 L188,54 L187,54 L187,53 L186,53 L186,52 L185,52 L185,51 L184,51 L184,50 L183,50 L183,49 L180,49 L180,48 L179,48 L179,47 L177,47 L177,46 L176,46 L176,45 L173,45 L173,43 L171,43 L171,42 L170,42 L170,41 L168,41 L168,40 L167,40 L167,39 L166,39 L166,38 L164,38 L164,37 L163,37 L163,36 L162,36 L162,35 L161,35 L161,34 L158,34 L158,33 L157,33 L157,32 L156,32 L156,30 L155,30 L155,29 L154,29 L154,28 L152,28 L152,27 L150,27 L150,26 Z " transform="translate(0,0)" style="fill: #FCFDFD;"/><path d="M0,0 L4,0 L4,1 L6,1 L6,2 L8,2 L8,3 L9,3 L9,4 L10,4 L10,6 L11,6 L11,7 L12,7 L12,8 L15,8 L15,9 L16,9 L16,10 L17,10 L17,11 L18,11 L18,12 L20,12 L20,13 L21,13 L21,14 L22,14 L22,15 L24,15 L24,16 L25,16 L25,17 L27,17 L27,19 L30,19 L30,20 L31,20 L31,21 L33,21 L33,22 L34,22 L34,23 L37,23 L37,24 L38,24 L38,25 L39,25 L39,26 L40,26 L40,27 L41,27 L41,28 L42,28 L42,29 L43,29 L43,30 L45,30 L45,31 L47,31 L47,32 L48,32 L48,33 L49,33 L49,34 L50,34 L50,35 L51,35 L51,36 L53,36 L53,37 L54,37 L54,38 L55,38 L55,39 L58,39 L58,40 L59,40 L59,41 L60,41 L60,42 L61,42 L61,43 L62,43 L62,44 L64,44 L64,45 L65,45 L65,46 L66,46 L66,47 L67,47 L67,48 L68,48 L68,49 L72,49 L72,50 L73,50 L73,51 L74,51 L74,52 L75,52 L75,55 L51,55 L51,77 L49,77 L49,78 L43,78 L43,96 L44,96 L44,101 L45,101 L45,105 L46,105 L46,109 L47,109 L47,110 L48,110 L48,113 L49,113 L49,115 L50,115 L50,116 L51,116 L51,120 L52,120 L52,122 L54,122 L54,124 L55,124 L55,125 L56,125 L56,127 L57,127 L57,128 L58,128 L58,129 L59,129 L59,131 L60,131 L60,132 L61,132 L61,134 L62,134 L62,135 L63,135 L63,136 L64,136 L64,137 L65,137 L65,138 L66,138 L66,139 L67,139 L67,140 L68,140 L68,141 L69,141 L69,142 L70,142 L70,143 L71,143 L71,144 L72,144 L72,145 L73,145 L73,146 L74,146 L74,147 L75,147 L75,148 L76,148 L76,149 L77,149 L77,150 L78,150 L78,152 L79,152 L79,153 L80,153 L80,154 L81,154 L81,155 L82,155 L82,157 L83,157 L83,158 L84,158 L84,161 L85,161 L85,163 L86,163 L86,164 L87,164 L87,165 L88,165 L88,168 L89,168 L89,170 L90,170 L90,171 L91,171 L91,178 L92,178 L92,182 L93,182 L93,186 L94,186 L94,208 L93,208 L93,212 L92,212 L92,218 L91,218 L91,221 L90,221 L90,224 L88,224 L88,225 L87,225 L87,228 L86,228 L86,230 L85,230 L85,234 L84,234 L84,235 L83,235 L83,236 L82,236 L82,237 L81,237 L81,239 L80,239 L80,240 L79,240 L79,242 L77,242 L77,244 L76,244 L76,245 L75,245 L75,247 L74,247 L74,248 L73,248 L73,249 L71,249 L71,252 L69,252 L69,254 L67,254 L67,255 L66,255 L66,256 L64,256 L64,258 L63,258 L63,259 L62,259 L62,260 L61,260 L61,261 L59,261 L59,262 L57,262 L57,263 L56,263 L56,264 L52,264 L52,265 L50,265 L50,267 L48,267 L48,268 L45,268 L45,269 L43,269 L43,270 L40,270 L40,271 L36,271 L36,272 L28,272 L28,273 L4,273 L4,271 L-1,271 L-1,270 L-4,270 L-4,269 L-8,269 L-8,268 L-9,268 L-9,267 L-13,267 L-13,266 L-14,266 L-14,265 L-18,265 L-18,264 L-19,264 L-19,262 L-20,262 L-20,261 L-22,261 L-22,260 L-24,260 L-24,259 L-26,259 L-26,258 L-28,258 L-28,257 L-29,257 L-29,255 L-30,255 L-30,254 L-31,254 L-31,253 L-32,253 L-32,252 L-33,252 L-33,251 L-34,251 L-34,250 L-35,250 L-35,249 L-36,249 L-36,248 L-38,248 L-38,247 L-39,247 L-39,246 L-40,246 L-40,244 L-41,244 L-41,243 L-42,243 L-42,242 L-44,242 L-44,238 L-45,238 L-45,235 L-46,235 L-46,234 L-47,234 L-47,233 L-48,233 L-48,231 L-49,231 L-49,230 L-50,230 L-50,227 L-51,227 L-51,224 L-52,224 L-52,220 L-54,220 L-54,218 L-55,218 L-55,212 L-56,212 L-56,208 L-57,208 L-57,188 L-56,188 L-56,183 L-55,183 L-55,182 L-54,182 L-54,179 L-53,179 L-53,174 L-52,174 L-52,172 L-51,172 L-51,168 L-49,168 L-49,163 L-48,163 L-48,161 L-47,161 L-47,158 L-46,158 L-46,157 L-45,157 L-45,156 L-44,156 L-44,155 L-43,155 L-43,153 L-42,153 L-42,151 L-41,151 L-41,150 L-40,150 L-40,149 L-39,149 L-39,147 L-38,147 L-38,146 L-37,146 L-37,144 L-36,144 L-36,143 L-35,143 L-35,142 L-34,142 L-34,141 L-32,141 L-32,140 L-31,140 L-31,139 L-30,139 L-30,137 L-29,137 L-29,136 L-28,136 L-28,135 L-26,135 L-26,134 L-25,134 L-25,133 L-24,133 L-24,131 L-22,131 L-22,130 L-21,130 L-21,126 L-20,126 L-20,125 L-19,125 L-19,121 L-18,121 L-18,101 L-19,101 L-19,97 L-20,97 L-20,96 L-22,96 L-22,93 L-23,93 L-23,90 L-25,90 L-25,89 L-26,89 L-26,88 L-27,88 L-27,86 L-28,86 L-28,85 L-29,85 L-29,84 L-30,84 L-30,82 L-31,82 L-31,81 L-34,81 L-34,80 L-36,80 L-36,78 L-46,78 L-46,55 L-72,55 L-72,52 L-70,52 L-70,51 L-69,51 L-69,50 L-68,50 L-68,49 L-65,49 L-65,48 L-64,48 L-64,47 L-63,47 L-63,46 L-61,46 L-61,45 L-59,45 L-59,44 L-58,44 L-58,43 L-57,43 L-57,42 L-56,42 L-56,41 L-55,41 L-55,40 L-54,40 L-54,39 L-52,39 L-52,38 L-51,38 L-51,37 L-50,37 L-50,36 L-49,36 L-49,35 L-48,35 L-48,34 L-46,34 L-46,33 L-44,33 L-44,32 L-43,32 L-43,31 L-41,31 L-41,29 L-39,29 L-39,28 L-37,28 L-37,27 L-36,27 L-36,26 L-34,26 L-34,25 L-33,25 L-33,24 L-32,24 L-32,23 L-31,23 L-31,22 L-29,22 L-29,21 L-28,21 L-28,20 L-26,20 L-26,19 L-25,19 L-25,18 L-24,18 L-24,17 L-23,17 L-23,16 L-22,16 L-22,15 L-21,15 L-21,14 L-20,14 L-20,13 L-17,13 L-17,12 L-14,12 L-14,11 L-13,11 L-13,10 L-12,10 L-12,9 L-10,9 L-10,8 L-9,8 L-9,7 L-8,7 L-8,6 L-7,6 L-7,5 L-5,5 L-5,4 L-4,4 L-4,3 L-2,3 L-2,2 L-1,2 L-1,1 L0,1 Z M0,11 L0,12 L-3,12 L-3,14 L-4,14 L-4,15 L-6,15 L-6,16 L-7,16 L-7,17 L-8,17 L-8,18 L-9,18 L-9,19 L-11,19 L-11,20 L-12,20 L-12,21 L-13,21 L-13,22 L-15,22 L-15,23 L-16,23 L-16,24 L-17,24 L-17,25 L-20,25 L-20,26 L-22,26 L-22,27 L-24,27 L-24,28 L-25,28 L-25,29 L-26,29 L-26,30 L-27,30 L-27,31 L-29,31 L-29,33 L-31,33 L-31,34 L-32,34 L-32,35 L-34,35 L-34,36 L-35,36 L-35,37 L-37,37 L-37,38 L-39,38 L-39,40 L-40,40 L-40,41 L-42,41 L-42,42 L-43,42 L-43,43 L-44,43 L-44,44 L-45,44 L-45,46 L-37,46 L-37,76 L41,76 L41,75 L42,75 L42,46 L50,46 L50,44 L48,44 L48,43 L47,43 L47,42 L46,42 L46,41 L45,41 L45,40 L44,40 L44,39 L42,39 L42,38 L41,38 L41,37 L39,37 L39,36 L37,36 L37,35 L36,35 L36,34 L35,34 L35,33 L33,33 L33,31 L30,31 L30,30 L28,30 L28,29 L27,29 L27,28 L26,28 L26,26 L24,26 L24,25 L23,25 L23,23 L21,23 L21,22 L20,22 L20,21 L19,21 L19,20 L16,20 L16,19 L15,19 L15,18 L13,18 L13,17 L11,17 L11,16 L10,16 L10,15 L9,15 L9,14 L7,14 L7,13 L6,13 L6,12 L5,12 L5,11 Z M-2,149 L-2,150 L-5,150 L-5,151 L-6,151 L-6,152 L-8,152 L-8,153 L-10,153 L-10,154 L-12,154 L-12,155 L-13,155 L-13,156 L-14,156 L-14,157 L-16,157 L-16,158 L-17,158 L-17,159 L-18,159 L-18,160 L-20,160 L-20,162 L-21,162 L-21,163 L-24,163 L-24,164 L-25,164 L-25,165 L-26,165 L-26,167 L-27,167 L-27,170 L-28,170 L-28,171 L-29,171 L-29,172 L-30,172 L-30,174 L-31,174 L-31,175 L-32,175 L-32,176 L-33,176 L-33,178 L-34,178 L-34,182 L-35,182 L-35,185 L-36,185 L-36,208 L-35,208 L-35,212 L-34,212 L-34,217 L-32,217 L-32,219 L-31,219 L-31,222 L-30,222 L-30,224 L-29,224 L-29,226 L-28,226 L-28,227 L-27,227 L-27,228 L-26,228 L-26,229 L-25,229 L-25,230 L-24,230 L-24,231 L-23,231 L-23,232 L-22,232 L-22,233 L-19,233 L-19,234 L-18,234 L-18,235 L-17,235 L-17,236 L-16,236 L-16,237 L-15,237 L-15,238 L-13,238 L-13,239 L-12,239 L-12,240 L-9,240 L-9,241 L-7,241 L-7,242 L-5,242 L-5,244 L-2,244 L-2,245 L8,245 L8,246 L19,246 L19,245 L25,245 L25,244 L26,244 L26,243 L31,243 L31,242 L34,242 L34,241 L35,241 L35,240 L39,240 L39,239 L40,239 L40,238 L41,238 L41,237 L42,237 L42,236 L43,236 L43,235 L45,235 L45,233 L47,233 L47,232 L48,232 L48,230 L49,230 L49,229 L50,229 L50,228 L51,228 L51,227 L52,227 L52,225 L53,225 L53,224 L54,224 L54,223 L55,223 L55,222 L56,222 L56,219 L57,219 L57,215 L58,215 L58,212 L60,212 L60,208 L61,208 L61,194 L59,194 L59,196 L58,196 L58,197 L56,197 L56,198 L55,198 L55,199 L54,199 L54,201 L52,201 L52,202 L51,202 L51,203 L50,203 L50,204 L46,204 L46,205 L38,205 L38,206 L37,206 L37,209 L38,209 L38,221 L37,221 L37,224 L36,224 L36,225 L35,225 L35,227 L34,227 L34,228 L33,228 L33,229 L32,229 L32,230 L31,230 L31,231 L29,231 L29,232 L26,232 L26,233 L16,233 L16,232 L14,232 L14,231 L11,231 L11,230 L10,230 L10,229 L9,229 L9,228 L8,228 L8,227 L6,227 L6,225 L5,225 L5,224 L4,224 L4,223 L3,223 L3,209 L4,209 L4,205 L5,205 L5,204 L6,204 L6,203 L7,203 L7,202 L8,202 L8,201 L10,201 L10,200 L11,200 L11,198 L13,198 L13,197 L16,197 L16,195 L15,195 L15,193 L14,193 L14,190 L13,190 L13,187 L12,187 L12,171 L13,171 L13,166 L15,166 L15,165 L16,165 L16,161 L17,161 L17,160 L18,160 L18,159 L19,159 L19,158 L20,158 L20,156 L24,156 L24,155 L27,155 L27,154 L30,154 L30,151 L29,151 L29,150 L26,150 L26,149 Z " transform="translate(146,26)" style="fill: #115FB9;"/><path d="M0,0 L28,0 L28,1 L31,1 L31,2 L32,2 L32,5 L29,5 L29,6 L26,6 L26,7 L22,7 L22,9 L21,9 L21,10 L20,10 L20,11 L19,11 L19,12 L18,12 L18,16 L17,16 L17,17 L15,17 L15,22 L14,22 L14,38 L15,38 L15,41 L16,41 L16,44 L17,44 L17,46 L18,46 L18,48 L15,48 L15,49 L13,49 L13,51 L12,51 L12,52 L10,52 L10,53 L9,53 L9,54 L8,54 L8,55 L7,55 L7,56 L6,56 L6,60 L5,60 L5,74 L6,74 L6,75 L7,75 L7,76 L8,76 L8,78 L10,78 L10,79 L11,79 L11,80 L12,80 L12,81 L13,81 L13,82 L16,82 L16,83 L18,83 L18,84 L28,84 L28,83 L31,83 L31,82 L33,82 L33,81 L34,81 L34,80 L35,80 L35,79 L36,79 L36,78 L37,78 L37,76 L38,76 L38,75 L39,75 L39,72 L40,72 L40,60 L39,60 L39,57 L40,57 L40,56 L48,56 L48,55 L52,55 L52,54 L53,54 L53,53 L54,53 L54,52 L56,52 L56,50 L57,50 L57,49 L58,49 L58,48 L60,48 L60,47 L61,47 L61,45 L63,45 L63,59 L62,59 L62,63 L60,63 L60,66 L59,66 L59,70 L58,70 L58,73 L57,73 L57,74 L56,74 L56,75 L55,75 L55,76 L54,76 L54,78 L53,78 L53,79 L52,79 L52,80 L51,80 L51,81 L50,81 L50,83 L49,83 L49,84 L47,84 L47,86 L45,86 L45,87 L44,87 L44,88 L43,88 L43,89 L42,89 L42,90 L41,90 L41,91 L37,91 L37,92 L36,92 L36,93 L33,93 L33,94 L28,94 L28,95 L27,95 L27,96 L21,96 L21,97 L10,97 L10,96 L0,96 L0,95 L-3,95 L-3,93 L-5,93 L-5,92 L-7,92 L-7,91 L-10,91 L-10,90 L-11,90 L-11,89 L-13,89 L-13,88 L-14,88 L-14,87 L-15,87 L-15,86 L-16,86 L-16,85 L-17,85 L-17,84 L-20,84 L-20,83 L-21,83 L-21,82 L-22,82 L-22,81 L-23,81 L-23,80 L-24,80 L-24,79 L-25,79 L-25,78 L-26,78 L-26,77 L-27,77 L-27,75 L-28,75 L-28,73 L-29,73 L-29,70 L-30,70 L-30,68 L-32,68 L-32,63 L-33,63 L-33,59 L-34,59 L-34,36 L-33,36 L-33,33 L-32,33 L-32,29 L-31,29 L-31,27 L-30,27 L-30,26 L-29,26 L-29,25 L-28,25 L-28,23 L-27,23 L-27,22 L-26,22 L-26,21 L-25,21 L-25,18 L-24,18 L-24,16 L-23,16 L-23,15 L-22,15 L-22,14 L-19,14 L-19,13 L-18,13 L-18,11 L-16,11 L-16,10 L-15,10 L-15,9 L-14,9 L-14,8 L-12,8 L-12,7 L-11,7 L-11,6 L-10,6 L-10,5 L-8,5 L-8,4 L-6,4 L-6,3 L-4,3 L-4,2 L-3,2 L-3,1 L0,1 Z " transform="translate(144,175)" style="fill: #E8F3F9;"/><path d="M0,0 L5,0 L5,1 L6,1 L6,2 L7,2 L7,3 L9,3 L9,4 L10,4 L10,5 L11,5 L11,6 L13,6 L13,7 L15,7 L15,8 L16,8 L16,9 L19,9 L19,10 L20,10 L20,11 L21,11 L21,12 L23,12 L23,14 L24,14 L24,15 L26,15 L26,17 L27,17 L27,18 L28,18 L28,19 L30,19 L30,20 L33,20 L33,22 L35,22 L35,23 L36,23 L36,24 L37,24 L37,25 L39,25 L39,26 L41,26 L41,27 L42,27 L42,28 L44,28 L44,29 L45,29 L45,30 L46,30 L46,31 L47,31 L47,32 L48,32 L48,33 L50,33 L50,35 L42,35 L42,64 L41,64 L41,65 L-37,65 L-37,35 L-45,35 L-45,33 L-44,33 L-44,32 L-43,32 L-43,31 L-42,31 L-42,30 L-40,30 L-40,29 L-39,29 L-39,27 L-37,27 L-37,26 L-35,26 L-35,25 L-34,25 L-34,24 L-32,24 L-32,23 L-31,23 L-31,22 L-29,22 L-29,20 L-27,20 L-27,19 L-26,19 L-26,18 L-25,18 L-25,17 L-24,17 L-24,16 L-22,16 L-22,15 L-20,15 L-20,14 L-17,14 L-17,13 L-16,13 L-16,12 L-15,12 L-15,11 L-13,11 L-13,10 L-12,10 L-12,9 L-11,9 L-11,8 L-9,8 L-9,7 L-8,7 L-8,6 L-7,6 L-7,5 L-6,5 L-6,4 L-4,4 L-4,3 L-3,3 L-3,1 L0,1 Z " transform="translate(146,37)" style="fill: #D4E5EE;"/></svg>